<?xml version="1.0" ?><svg data-name="Layer 1" id="Layer_1" viewBox="0 0 140 140" xmlns="http://www.w3.org/2000/svg"><defs><style>.cls-1{fill:#ccbeb0;}.cls-2{fill:#525354;}.cls-3{fill:#d77165;}.cls-4{fill:#fff;}.cls-5{fill:#52b1b1;}.cls-6{fill:#f0dc6a;}</style></defs><title/><circle class="cls-1" cx="70" cy="70" r="64"/><rect class="cls-2" height="64" rx="1" ry="1" width="20" x="35.05" y="39.46"/><rect class="cls-3" height="64" rx="1" ry="1" width="20" x="34.05" y="38.46"/><rect class="cls-4" height="44" rx="1" ry="1" width="14" x="37.05" y="42.46"/><circle class="cls-2" cx="43.05" cy="94.46" r="3"/><circle class="cls-4" cx="44.05" cy="94.46" r="3"/><rect class="cls-2" height="2" rx="1" ry="1" width="10" x="39.05" y="46.07"/><rect class="cls-2" height="2" rx="1" ry="1" width="10" x="39.22" y="51.07"/><rect class="cls-2" height="2" rx="1" ry="1" width="10" x="39.22" y="56.07"/><rect class="cls-2" height="64" rx="1" ry="1" width="20" x="57.05" y="39.46"/><rect class="cls-5" height="64" rx="1" ry="1" width="20" x="56.05" y="38.46"/><rect class="cls-4" height="44" rx="1" ry="1" width="14" x="59.05" y="42.46"/><circle class="cls-2" cx="65.05" cy="94.46" r="3"/><circle class="cls-4" cx="66.05" cy="94.46" r="3"/><rect class="cls-2" height="2" rx="1" ry="1" width="10" x="61.05" y="46.07"/><rect class="cls-2" height="2" rx="1" ry="1" width="10" x="61.22" y="51.07"/><rect class="cls-2" height="2" rx="1" ry="1" width="10" x="61.22" y="56.07"/><rect class="cls-2" height="64" rx="1" ry="1" transform="translate(-8.26 12.37) rotate(-7.36)" width="20" x="82.05" y="38.44"/><rect class="cls-6" height="64" rx="1" ry="1" transform="translate(-8.14 12.23) rotate(-7.36)" width="20" x="81.05" y="37.44"/><rect class="cls-4" height="44" rx="1" ry="1" transform="translate(-7.39 12.08) rotate(-7.36)" width="14" x="83.28" y="41.49"/><circle class="cls-2" cx="93.25" cy="93.11" r="3" transform="translate(-11.16 12.71) rotate(-7.36)"/><circle class="cls-4" cx="94.13" cy="93.24" r="3" transform="translate(-11.17 12.82) rotate(-7.36)"/><rect class="cls-2" height="2" rx="1" ry="1" transform="translate(-5.2 11.66) rotate(-7.36)" width="10" x="83.06" y="45.24"/><rect class="cls-2" height="2" rx="1" ry="1" transform="translate(-5.82 11.8) rotate(-7.36)" width="10" x="83.86" y="50.18"/><rect class="cls-2" height="2" rx="1" ry="1" transform="translate(-6.45 11.92) rotate(-7.36)" width="10" x="84.5" y="55.14"/></svg>